<svg xmlns="http://www.w3.org/2000/svg" width="240" height="240" viewBox="0 0 240 240">
  <defs>
    <g id="paw">
      <ellipse cx="0" cy="6" rx="9" ry="7.5"/>
      <ellipse cx="-10" cy="-5" rx="3.6" ry="4.6" transform="rotate(-20 -10 -5)"/>
      <ellipse cx="-3.5" cy="-11" rx="3.6" ry="4.8"/>
      <ellipse cx="3.5" cy="-11" rx="3.6" ry="4.8"/>
      <ellipse cx="10" cy="-5" rx="3.6" ry="4.6" transform="rotate(20 10 -5)"/>
    </g>
    <path id="heart" d="M0 8 C-12 0 -10 -10 -4 -10 C-1.5 -10 0 -8 0 -6 C0 -8 1.5 -10 4 -10 C10 -10 12 0 0 8 Z"/>
    <path id="star" d="M0 -10 L2.9 -4 L9.5 -3.1 L4.7 1.5 L5.9 8.1 L0 5 L-5.9 8.1 L-4.7 1.5 L-9.5 -3.1 L-2.9 -4 Z"/>
  </defs>
  <g opacity="0.22">
    <use href="#paw" x="30" y="30" fill="#f08a2c" transform="rotate(-15 30 30)"/>
    <use href="#heart" x="100" y="25" fill="#d9a877"/>
    <use href="#star" x="170" y="35" fill="#f08a2c"/>
    <use href="#paw" x="210" y="95" fill="#d9a877" transform="rotate(20 210 95)"/>
    <use href="#star" x="65" y="95" fill="#d9a877"/>
    <use href="#heart" x="140" y="100" fill="#f08a2c"/>
    <use href="#paw" x="100" y="165" fill="#5a3a28" transform="rotate(10 100 165)"/>
    <use href="#heart" x="25" y="170" fill="#5a3a28"/>
    <use href="#star" x="190" y="170" fill="#5a3a28"/>
    <use href="#paw" x="45" y="220" fill="#d9a877" transform="rotate(-25 45 220)"/>
    <use href="#heart" x="160" y="225" fill="#d9a877"/>
  </g>
</svg>
